<mxfile host="app.diagrams.net" modified="2023-02-09T14:46:12.808Z" agent="5.0 (Windows NT 10.0; Win64; x64) AppleWebKit/537.36 (KHTML, like Gecko) Chrome/109.0.0.0 Safari/537.36" etag="JThq3pINY49gMvVr3YiA" version="20.5.1" type="github">
  <diagram id="iGkFwIin6d40jrOHzPvT" name="페이지-1">
    <mxGraphModel dx="1182" dy="675" grid="1" gridSize="10" guides="1" tooltips="1" connect="1" arrows="1" fold="1" page="1" pageScale="1" pageWidth="827" pageHeight="1169" math="0" shadow="0">
      <root>
        <mxCell id="0" />
        <mxCell id="1" parent="0" />
        <mxCell id="ybN8V9teR_txjSvZQByX-4" style="edgeStyle=orthogonalEdgeStyle;rounded=0;orthogonalLoop=1;jettySize=auto;html=1;entryX=0.5;entryY=0;entryDx=0;entryDy=0;" edge="1" parent="1" source="ybN8V9teR_txjSvZQByX-1" target="ybN8V9teR_txjSvZQByX-2">
          <mxGeometry relative="1" as="geometry" />
        </mxCell>
        <mxCell id="ybN8V9teR_txjSvZQByX-11" style="edgeStyle=orthogonalEdgeStyle;rounded=0;orthogonalLoop=1;jettySize=auto;html=1;entryX=0;entryY=0.5;entryDx=0;entryDy=0;" edge="1" parent="1" source="ybN8V9teR_txjSvZQByX-1" target="ybN8V9teR_txjSvZQByX-7">
          <mxGeometry relative="1" as="geometry" />
        </mxCell>
        <mxCell id="ybN8V9teR_txjSvZQByX-1" value="/ list.do" style="rounded=0;whiteSpace=wrap;html=1;" vertex="1" parent="1">
          <mxGeometry x="190" y="290" width="120" height="60" as="geometry" />
        </mxCell>
        <mxCell id="ybN8V9teR_txjSvZQByX-5" style="edgeStyle=orthogonalEdgeStyle;rounded=0;orthogonalLoop=1;jettySize=auto;html=1;entryX=0.5;entryY=0;entryDx=0;entryDy=0;" edge="1" parent="1" source="ybN8V9teR_txjSvZQByX-2" target="ybN8V9teR_txjSvZQByX-3">
          <mxGeometry relative="1" as="geometry" />
        </mxCell>
        <mxCell id="ybN8V9teR_txjSvZQByX-2" value="/ writeForm.do - get&lt;br&gt;글쓰기 폼" style="rounded=0;whiteSpace=wrap;html=1;" vertex="1" parent="1">
          <mxGeometry x="190" y="400" width="120" height="60" as="geometry" />
        </mxCell>
        <mxCell id="ybN8V9teR_txjSvZQByX-6" style="edgeStyle=orthogonalEdgeStyle;rounded=0;orthogonalLoop=1;jettySize=auto;html=1;entryX=0.008;entryY=0.383;entryDx=0;entryDy=0;entryPerimeter=0;" edge="1" parent="1" source="ybN8V9teR_txjSvZQByX-3" target="ybN8V9teR_txjSvZQByX-1">
          <mxGeometry relative="1" as="geometry">
            <Array as="points">
              <mxPoint x="150" y="555" />
              <mxPoint x="150" y="313" />
            </Array>
          </mxGeometry>
        </mxCell>
        <mxCell id="ybN8V9teR_txjSvZQByX-3" value="/ writeForm.do - post&lt;br&gt;글쓰기 처리" style="rounded=0;whiteSpace=wrap;html=1;" vertex="1" parent="1">
          <mxGeometry x="190" y="525" width="120" height="60" as="geometry" />
        </mxCell>
        <mxCell id="ybN8V9teR_txjSvZQByX-12" style="edgeStyle=orthogonalEdgeStyle;rounded=0;orthogonalLoop=1;jettySize=auto;html=1;entryX=0.5;entryY=0;entryDx=0;entryDy=0;" edge="1" parent="1" source="ybN8V9teR_txjSvZQByX-7" target="ybN8V9teR_txjSvZQByX-9">
          <mxGeometry relative="1" as="geometry" />
        </mxCell>
        <mxCell id="ybN8V9teR_txjSvZQByX-18" style="edgeStyle=orthogonalEdgeStyle;rounded=0;orthogonalLoop=1;jettySize=auto;html=1;entryX=0;entryY=0.5;entryDx=0;entryDy=0;" edge="1" parent="1" source="ybN8V9teR_txjSvZQByX-7" target="ybN8V9teR_txjSvZQByX-14">
          <mxGeometry relative="1" as="geometry" />
        </mxCell>
        <mxCell id="ybN8V9teR_txjSvZQByX-7" value="/ view.do" style="rounded=0;whiteSpace=wrap;html=1;" vertex="1" parent="1">
          <mxGeometry x="440" y="290" width="120" height="60" as="geometry" />
        </mxCell>
        <mxCell id="ybN8V9teR_txjSvZQByX-8" style="edgeStyle=orthogonalEdgeStyle;rounded=0;orthogonalLoop=1;jettySize=auto;html=1;entryX=0.5;entryY=0;entryDx=0;entryDy=0;" edge="1" parent="1" source="ybN8V9teR_txjSvZQByX-9" target="ybN8V9teR_txjSvZQByX-10">
          <mxGeometry relative="1" as="geometry" />
        </mxCell>
        <mxCell id="ybN8V9teR_txjSvZQByX-9" value="/ update.do - get&lt;br&gt;글수정 폼" style="rounded=0;whiteSpace=wrap;html=1;" vertex="1" parent="1">
          <mxGeometry x="440" y="400" width="120" height="60" as="geometry" />
        </mxCell>
        <mxCell id="ybN8V9teR_txjSvZQByX-10" value="/ update.do - post&lt;br&gt;글수정 처리" style="rounded=0;whiteSpace=wrap;html=1;" vertex="1" parent="1">
          <mxGeometry x="440" y="525" width="120" height="60" as="geometry" />
        </mxCell>
        <mxCell id="ybN8V9teR_txjSvZQByX-20" style="edgeStyle=orthogonalEdgeStyle;rounded=0;orthogonalLoop=1;jettySize=auto;html=1;entryX=0.5;entryY=0;entryDx=0;entryDy=0;" edge="1" parent="1" source="ybN8V9teR_txjSvZQByX-14" target="ybN8V9teR_txjSvZQByX-1">
          <mxGeometry relative="1" as="geometry">
            <Array as="points">
              <mxPoint x="740" y="240" />
              <mxPoint x="250" y="240" />
            </Array>
          </mxGeometry>
        </mxCell>
        <mxCell id="ybN8V9teR_txjSvZQByX-14" value="/ delete.do" style="rounded=0;whiteSpace=wrap;html=1;" vertex="1" parent="1">
          <mxGeometry x="680" y="290" width="120" height="60" as="geometry" />
        </mxCell>
        <mxCell id="ybN8V9teR_txjSvZQByX-19" value="/ board" style="rounded=0;whiteSpace=wrap;html=1;" vertex="1" parent="1">
          <mxGeometry x="440" y="160" width="120" height="60" as="geometry" />
        </mxCell>
      </root>
    </mxGraphModel>
  </diagram>
</mxfile>
